<svg xmlns="http://www.w3.org/2000/svg" viewBox="0 0 262.96 86.96"><defs><style>.cls-1,.cls-2{fill:#fff;}.cls-2{stroke:#fff;stroke-miterlimit:10;}</style></defs><title>logo  normal</title><g id="Capa_2" data-name="Capa 2"><g id="Capa_1-2" data-name="Capa 1"><path class="cls-1" d="M102,23.73V.52h5V23.73Z"/><path class="cls-1" d="M111.47,23.73V.52h5.15L126.9,14a10.71,10.71,0,0,1,1,1.61c.36.69.72,1.51,1.1,2.45-.11-.69-.2-1.37-.25-2.05s-.08-1.52-.08-2.53V.52h4.74V23.73h-4.87L118,10a9.94,9.94,0,0,1-1-1.61c-.35-.69-.72-1.52-1.11-2.48a19.55,19.55,0,0,1,.25,2c.06.68.08,1.54.08,2.58V23.73Z"/><path class="cls-1" d="M137.74,23.73V.52h6.32a26,26,0,0,1,5.9.53,10.22,10.22,0,0,1,3.79,1.74,10,10,0,0,1,3.19,4A12.86,12.86,0,0,1,158,12.17a12.83,12.83,0,0,1-1.11,5.48,10,10,0,0,1-3.25,3.94,10.38,10.38,0,0,1-3.53,1.64,23.93,23.93,0,0,1-5.68.5h-6.72Zm5-4.18h2.76c2.6,0,4.49-.6,5.68-1.78s1.78-3.06,1.78-5.63-.59-4.43-1.78-5.62-3.08-1.78-5.68-1.78H142.7Z"/><path class="cls-1" d="M185.13,12.17a12.24,12.24,0,0,1-.92,4.71,11.6,11.6,0,0,1-2.67,3.9,12.92,12.92,0,0,1-4.08,2.65,12.4,12.4,0,0,1-8.85.2,12.81,12.81,0,0,1-3.74-2.07,11.78,11.78,0,0,1-4.51-9.39,11.94,11.94,0,0,1,.92-4.7A11.62,11.62,0,0,1,164,3.57,12.78,12.78,0,0,1,172.77,0a12.27,12.27,0,0,1,4.72.94,12.8,12.8,0,0,1,4,2.63,11.64,11.64,0,0,1,2.67,3.91A12,12,0,0,1,185.13,12.17Zm-12.36,7.76A6.8,6.8,0,0,0,178,17.71,7.81,7.81,0,0,0,180,12.17,7.85,7.85,0,0,0,178,6.63a7.16,7.16,0,0,0-10.41,0,7.84,7.84,0,0,0-2.08,5.55,7.79,7.79,0,0,0,2,5.56A6.83,6.83,0,0,0,172.77,19.93Z"/><path class="cls-1" d="M212.27,12.17a12.07,12.07,0,0,1-.93,4.71,11.31,11.31,0,0,1-2.67,3.9,12.76,12.76,0,0,1-4.07,2.65,12.42,12.42,0,0,1-8.86.2A12.89,12.89,0,0,1,192,21.56a11.83,11.83,0,0,1-4.52-9.39,12.12,12.12,0,0,1,.92-4.7,11.65,11.65,0,0,1,2.7-3.9A12.78,12.78,0,0,1,199.91,0a12.22,12.22,0,0,1,4.71.94,12.58,12.58,0,0,1,4,2.63,11.53,11.53,0,0,1,2.68,3.91A12.14,12.14,0,0,1,212.27,12.17Zm-12.36,7.76a6.78,6.78,0,0,0,5.2-2.22,7.82,7.82,0,0,0,2.06-5.54,7.89,7.89,0,0,0-2.08-5.54,6.75,6.75,0,0,0-5.18-2.25,6.82,6.82,0,0,0-5.24,2.24,7.87,7.87,0,0,0-2.07,5.55,7.83,7.83,0,0,0,2,5.56A6.87,6.87,0,0,0,199.91,19.93Z"/><path class="cls-1" d="M232.43,23.73h-5.72l-6.1-10.84V23.73h-5V.52h7.1q4.23,0,6.34,1.64A5.9,5.9,0,0,1,231.2,7.1a6.06,6.06,0,0,1-1.45,4.09,5.62,5.62,0,0,1-3.72,2ZM220.61,10.42h.74c2,0,3.34-.22,4-.66a2.57,2.57,0,0,0,1-2.29,2.77,2.77,0,0,0-1-2.44,7.41,7.41,0,0,0-3.91-.72h-.74Z"/><path class="cls-1" d="M113.46,42.8H124a3,3,0,0,1,0,.44c0,.16,0,.41,0,.73a12,12,0,0,1-3,8.45,10,10,0,0,1-7.71,3.24,12.15,12.15,0,0,1-8.9-3.45A11.76,11.76,0,0,1,101,43.45a11.63,11.63,0,0,1,3.52-8.7,12.18,12.18,0,0,1,8.89-3.44,11.27,11.27,0,0,1,5.2,1.19,12.45,12.45,0,0,1,4.22,3.55l-3.34,2.47a8.14,8.14,0,0,0-2.64-2.24,7,7,0,0,0-3.18-.69,7.25,7.25,0,0,0-5.5,2.14,7.86,7.86,0,0,0-2.06,5.72,7.9,7.9,0,0,0,2.06,5.68,7.11,7.11,0,0,0,5.4,2.17,6.47,6.47,0,0,0,4-1.15,3.61,3.61,0,0,0,1.52-3v-.25h-5.58Z"/><path class="cls-1" d="M144,55h-5.73l-6.1-10.85V55h-5V31.83h7.1c2.82,0,4.94.55,6.34,1.64a5.86,5.86,0,0,1,2.11,4.94,6.12,6.12,0,0,1-1.44,4.09,5.64,5.64,0,0,1-3.73,2ZM132.16,41.72h.75c2,0,3.33-.22,4-.66a2.56,2.56,0,0,0,1-2.29,2.73,2.73,0,0,0-1-2.43,7.37,7.37,0,0,0-3.9-.72h-.75Z"/><path class="cls-1" d="M169.82,43.48a12.24,12.24,0,0,1-.92,4.71,11.6,11.6,0,0,1-2.67,3.9,13.09,13.09,0,0,1-4.08,2.65,12.4,12.4,0,0,1-4.69.92,12.11,12.11,0,0,1-4.16-.73,13,13,0,0,1-3.74-2.06,12.1,12.1,0,0,1-3.35-4.17,12.39,12.39,0,0,1-.24-9.92,11.65,11.65,0,0,1,2.69-3.91,12.71,12.71,0,0,1,8.8-3.56,12.36,12.36,0,0,1,4.71.93,12.9,12.9,0,0,1,4.06,2.63,11.68,11.68,0,0,1,2.67,3.92A11.92,11.92,0,0,1,169.82,43.48Zm-12.36,7.75A6.79,6.79,0,0,0,162.67,49a7.86,7.86,0,0,0,2.05-5.54,7.85,7.85,0,0,0-2.08-5.55,6.75,6.75,0,0,0-5.18-2.25,6.84,6.84,0,0,0-5.23,2.24,7.86,7.86,0,0,0-2.08,5.56,7.86,7.86,0,0,0,2,5.56A6.9,6.9,0,0,0,157.46,51.23Z"/><path class="cls-1" d="M189.34,31.83l3.44,12.59c.22.8.42,1.66.61,2.58s.37,2,.54,3.09a26.53,26.53,0,0,1,.22-2.84,23.87,23.87,0,0,1,.54-2.83l3-12.59h4.89L196.53,55h-4.77l-4.15-14.81a18.28,18.28,0,0,1-.48-2c-.11-.69-.19-1.4-.24-2.14q-.07,1.17-.24,2.22a15.68,15.68,0,0,1-.44,2L182,55h-4.77l-6.08-23.21h5l3,12.89q.26,1.11.42,2.4c.1.86.18,1.8.24,2.81q.3-2,1.1-5.1l.08-.33,3.41-12.67Z"/><path class="cls-1" d="M205.11,55V31.83h5V55Z"/><path class="cls-1" d="M214.55,55V31.83h5.15L230,45.34A10.22,10.22,0,0,1,231,47c.35.69.72,1.5,1.1,2.44-.11-.68-.2-1.36-.25-2s-.08-1.52-.08-2.54v-13h4.74V55h-4.87L221,41.28a10.79,10.79,0,0,1-1-1.61c-.35-.69-.72-1.52-1.11-2.48.11.66.2,1.34.25,2s.08,1.54.08,2.58V55Z"/><path class="cls-1" d="M252.34,42.8h10.57a2.06,2.06,0,0,1,0,.44c0,.16,0,.41,0,.73a12,12,0,0,1-3,8.45,10,10,0,0,1-7.7,3.24,12.15,12.15,0,0,1-8.91-3.45,11.76,11.76,0,0,1-3.51-8.76,11.67,11.67,0,0,1,3.52-8.7,12.19,12.19,0,0,1,8.9-3.44,11.33,11.33,0,0,1,5.2,1.19,12.42,12.42,0,0,1,4.21,3.55l-3.34,2.47a8.12,8.12,0,0,0-2.63-2.24,7,7,0,0,0-3.19-.69,7.27,7.27,0,0,0-5.5,2.14A7.9,7.9,0,0,0,245,43.45,7.86,7.86,0,0,0,247,49.13a7.11,7.11,0,0,0,5.4,2.17,6.46,6.46,0,0,0,4-1.15,3.61,3.61,0,0,0,1.52-3v-.25h-5.58Z"/><path class="cls-1" d="M120.62,69.18a10.35,10.35,0,0,0-3.09-2,9.32,9.32,0,0,0-3.39-.62,7.94,7.94,0,0,0-5.91,2.22,8.08,8.08,0,0,0-2.21,6,8.05,8.05,0,0,0,2,5.81,7.34,7.34,0,0,0,5.58,2.15,10,10,0,0,0,6.94-2.7l0,5.09a13,13,0,0,1-3.32,1.39,14.12,14.12,0,0,1-3.66.46,12.57,12.57,0,0,1-9.1-3.44,12.52,12.52,0,0,1,0-17.5,12.69,12.69,0,0,1,9.19-3.44,16.27,16.27,0,0,1,3.65.4,16,16,0,0,1,3.47,1.22Z"/><path class="cls-1" d="M121.67,86.35l8.83-23.21h5.67l9,23.21h-5.64l-1.89-4.93h-9L127,86.35Zm14.77-8.83-2.6-7.5c-.07-.23-.17-.6-.28-1.14s-.24-1.2-.37-2c-.14.75-.27,1.43-.4,2s-.22,1-.28,1.19L130,77.52Z"/><path class="cls-1" d="M146.76,86.35V63.14h5.15l10.27,13.5a10.64,10.64,0,0,1,1,1.61c.35.7.72,1.51,1.1,2.45-.12-.68-.2-1.37-.25-2s-.08-1.53-.08-2.54v-13h4.74V86.35H163.8L153.24,72.58a9.42,9.42,0,0,1-1-1.6c-.35-.7-.72-1.52-1.12-2.48a18.89,18.89,0,0,1,.26,2c.05.68.08,1.54.08,2.57V86.35Z"/><path class="cls-1" d="M170.26,86.35l8.83-23.21h5.68l9,23.21h-5.65l-1.88-4.93h-9l-1.62,4.93ZM185,77.52l-2.6-7.5c-.08-.23-.17-.6-.29-1.14s-.23-1.2-.36-2c-.14.75-.27,1.43-.4,2s-.22,1-.28,1.19l-2.51,7.41Z"/><path class="cls-1" d="M195.36,86.35V63.14h6.32a26.11,26.11,0,0,1,5.9.52,10.38,10.38,0,0,1,3.79,1.74,10.09,10.09,0,0,1,3.19,4,14.08,14.08,0,0,1,0,10.91,10.11,10.11,0,0,1-3.25,3.94,10.57,10.57,0,0,1-3.53,1.64,24.47,24.47,0,0,1-5.68.5h-6.72Zm5-4.19h2.76q3.9,0,5.68-1.78t1.78-5.62q0-3.84-1.78-5.62t-5.68-1.79h-2.76Z"/><path class="cls-1" d="M215.66,86.35l8.83-23.21h5.68l9,23.21h-5.64l-1.89-4.93h-9L221,86.35Zm14.78-8.83-2.6-7.5c-.08-.23-.17-.6-.29-1.14s-.24-1.2-.36-2c-.14.75-.27,1.43-.4,2s-.22,1-.29,1.19L224,77.52Z"/><path class="cls-2" d="M.5,1V85.83h82c.88,0,2,0,2.83,0,0-.82,0-2,0-2.86V1ZM76.59,77.16C30.26,74.36,30.12,30.8,30.12,30.8c46.27,2.95,46.47,45.61,46.47,46.35Zm0-29.3a55.85,55.85,0,0,0-47-25.6,54.18,54.18,0,0,0-7.47.5,56.54,56.54,0,0,0-.49,7.4,55.85,55.85,0,0,0,25.63,47H9V9.53H76.59Z"/></g></g></svg>